<svg width="155" height="51" viewBox="0 0 155 51" fill="none" xmlns="http://www.w3.org/2000/svg">
<g filter="url(#filter0_d_1_9)">
<path d="M49.9975 24V5.81818H56.6559C57.9461 5.81818 59.0144 6.03125 59.8608 6.45739C60.7071 6.8776 61.3404 7.44874 61.7607 8.17081C62.1809 8.88696 62.391 9.69484 62.391 10.5945C62.391 11.352 62.2519 11.9912 61.9737 12.5121C61.6955 13.027 61.3227 13.4413 60.8551 13.755C60.3935 14.0627 59.8845 14.2876 59.3281 14.4297V14.6072C59.9318 14.6368 60.5207 14.8321 61.0948 15.1932C61.6748 15.5483 62.1542 16.0543 62.533 16.7113C62.9118 17.3683 63.1012 18.1673 63.1012 19.1083C63.1012 20.0375 62.8822 20.872 62.4442 21.6119C62.0122 22.3458 61.3434 22.9287 60.4379 23.3608C59.5323 23.7869 58.3752 24 56.9666 24H49.9975ZM52.7408 21.6474H56.7003C58.0142 21.6474 58.9553 21.3929 59.5234 20.8839C60.0916 20.3749 60.3757 19.7386 60.3757 18.9751C60.3757 18.401 60.2307 17.8743 59.9407 17.3949C59.6507 16.9155 59.2364 16.5337 58.6978 16.2496C58.1651 15.9656 57.5318 15.8235 56.7979 15.8235H52.7408V21.6474ZM52.7408 13.6839H56.4162C57.0317 13.6839 57.5851 13.5656 58.0763 13.3288C58.5735 13.0921 58.9671 12.7607 59.2571 12.3345C59.553 11.9025 59.701 11.3935 59.701 10.8075C59.701 10.0559 59.4376 9.42554 58.9109 8.91655C58.3841 8.40755 57.5762 8.15305 56.4872 8.15305H52.7408V13.6839ZM74.78 18.3448V10.3636H77.4434V24H74.8333V21.6385H74.6912C74.3775 22.3665 73.8745 22.9731 73.182 23.4585C72.4954 23.9379 71.6402 24.1776 70.6163 24.1776C69.7404 24.1776 68.965 23.9852 68.2903 23.6005C67.6215 23.2099 67.0948 22.6328 66.71 21.8693C66.3313 21.1058 66.1419 20.1618 66.1419 19.0373V10.3636H68.7963V18.7177C68.7963 19.6469 69.0538 20.3867 69.5687 20.9371C70.0836 21.4876 70.7524 21.7628 71.5751 21.7628C72.0723 21.7628 72.5665 21.6385 73.0577 21.3899C73.5549 21.1413 73.9662 20.7655 74.2917 20.2624C74.6232 19.7594 74.7859 19.1201 74.78 18.3448ZM81.01 24V10.3636H83.6645V24H81.01ZM82.3506 8.25959C81.8889 8.25959 81.4924 8.1057 81.161 7.79794C80.8354 7.48426 80.6727 7.11139 80.6727 6.67933C80.6727 6.24136 80.8354 5.86849 81.161 5.56072C81.4924 5.24704 81.8889 5.0902 82.3506 5.0902C82.8122 5.0902 83.2058 5.24704 83.5313 5.56072C83.8628 5.86849 84.0285 6.24136 84.0285 6.67933C84.0285 7.11139 83.8628 7.48426 83.5313 7.79794C83.2058 8.1057 82.8122 8.25959 82.3506 8.25959ZM89.8901 5.81818V24H87.2356V5.81818H89.8901ZM98.566 24.2663C97.4651 24.2663 96.4826 23.9852 95.6185 23.4229C94.7603 22.8548 94.0856 22.0469 93.5944 20.9993C93.109 19.9458 92.8664 18.6822 92.8664 17.2085C92.8664 15.7347 93.112 14.4741 93.6032 13.4265C94.1004 12.3789 94.781 11.5769 95.6452 11.0206C96.5093 10.4643 97.4888 10.1861 98.5837 10.1861C99.4301 10.1861 100.111 10.3281 100.626 10.6122C101.146 10.8904 101.549 11.2159 101.833 11.5888C102.123 11.9616 102.348 12.2901 102.508 12.5742H102.668V5.81818H105.322V24H102.73V21.8782H102.508C102.348 22.1682 102.117 22.4996 101.815 22.8725C101.519 23.2454 101.111 23.5709 100.59 23.8491C100.069 24.1272 99.3946 24.2663 98.566 24.2663ZM99.1519 22.0025C99.9154 22.0025 100.561 21.8013 101.087 21.3988C101.62 20.9904 102.022 20.4252 102.295 19.7031C102.573 18.9811 102.712 18.1406 102.712 17.1818C102.712 16.2348 102.576 15.4062 102.304 14.696C102.031 13.9858 101.632 13.4324 101.105 13.0359C100.578 12.6393 99.9272 12.4411 99.1519 12.4411C98.3529 12.4411 97.6871 12.6482 97.1544 13.0625C96.6217 13.4768 96.2193 14.042 95.947 14.7582C95.6807 15.4743 95.5475 16.2822 95.5475 17.1818C95.5475 18.0933 95.6836 18.913 95.9559 19.641C96.2281 20.369 96.6306 20.946 97.1633 21.3722C97.7019 21.7924 98.3647 22.0025 99.1519 22.0025ZM109.111 24V10.3636H111.765V24H109.111ZM110.451 8.25959C109.99 8.25959 109.593 8.1057 109.262 7.79794C108.936 7.48426 108.773 7.11139 108.773 6.67933C108.773 6.24136 108.936 5.86849 109.262 5.56072C109.593 5.24704 109.99 5.0902 110.451 5.0902C110.913 5.0902 111.306 5.24704 111.632 5.56072C111.963 5.86849 112.129 6.24136 112.129 6.67933C112.129 7.11139 111.963 7.48426 111.632 7.79794C111.306 8.1057 110.913 8.25959 110.451 8.25959ZM117.991 15.9034V24H115.336V10.3636H117.884V12.5831H118.053C118.367 11.861 118.858 11.281 119.527 10.843C120.201 10.4051 121.051 10.1861 122.074 10.1861C123.004 10.1861 123.818 10.3814 124.516 10.772C125.214 11.1567 125.756 11.7308 126.141 12.4943C126.525 13.2578 126.718 14.2018 126.718 15.3263V24H124.063V15.646C124.063 14.6576 123.806 13.8852 123.291 13.3288C122.776 12.7666 122.069 12.4854 121.169 12.4854C120.553 12.4854 120.006 12.6186 119.527 12.8849C119.053 13.1513 118.677 13.5419 118.399 14.0568C118.127 14.5658 117.991 15.1813 117.991 15.9034ZM135.995 29.3977C134.912 29.3977 133.98 29.2557 133.198 28.9716C132.423 28.6875 131.79 28.3117 131.299 27.8441C130.807 27.3765 130.44 26.8646 130.198 26.3082L132.479 25.3672C132.639 25.6276 132.852 25.9028 133.119 26.1928C133.391 26.4888 133.758 26.7403 134.219 26.9474C134.687 27.1546 135.288 27.2582 136.022 27.2582C137.028 27.2582 137.859 27.0125 138.516 26.5213C139.173 26.036 139.502 25.2607 139.502 24.1953V21.5142H139.333C139.173 21.8042 138.942 22.1268 138.641 22.4819C138.345 22.837 137.936 23.1448 137.415 23.4052C136.895 23.6656 136.217 23.7958 135.382 23.7958C134.305 23.7958 133.335 23.5443 132.47 23.0412C131.612 22.5322 130.932 21.7835 130.429 20.7951C129.931 19.8008 129.683 18.5786 129.683 17.1286C129.683 15.6785 129.928 14.4356 130.42 13.3999C130.917 12.3641 131.597 11.571 132.462 11.0206C133.326 10.4643 134.305 10.1861 135.4 10.1861C136.246 10.1861 136.93 10.3281 137.451 10.6122C137.972 10.8904 138.377 11.2159 138.667 11.5888C138.963 11.9616 139.191 12.2901 139.351 12.5742H139.546V10.3636H142.147V24.3018C142.147 25.4737 141.875 26.4355 141.331 27.1871C140.786 27.9388 140.049 28.4951 139.12 28.8562C138.197 29.2172 137.155 29.3977 135.995 29.3977ZM135.968 21.5941C136.732 21.5941 137.377 21.4165 137.904 21.0614C138.436 20.7004 138.839 20.1855 139.111 19.5167C139.389 18.842 139.528 18.0341 139.528 17.093C139.528 16.1757 139.392 15.3678 139.12 14.6694C138.848 13.971 138.448 13.4265 137.921 13.0359C137.395 12.6393 136.744 12.4411 135.968 12.4411C135.169 12.4411 134.503 12.6482 133.971 13.0625C133.438 13.4709 133.036 14.0272 132.763 14.7315C132.497 15.4358 132.364 16.223 132.364 17.093C132.364 17.9867 132.5 18.771 132.772 19.4457C133.045 20.1204 133.447 20.6471 133.98 21.0259C134.518 21.4047 135.181 21.5941 135.968 21.5941Z" fill="#067DD2"/>
</g>
<g filter="url(#filter1_d_1_9)">
<path d="M38.4 42L25.85 29.45L28.7 26.6L41.25 39.15L38.4 42ZM9.35 42L6.5 39.15L21 24.65L15.65 19.3L14.5 20.45L12.3 18.25V22.5L11.1 23.7L5 17.6L6.2 16.4H10.5L8.1 14L14.65 7.45001C15.2167 6.88335 15.8333 6.50001 16.5 6.30001C17.1667 6.10001 17.9 6.00001 18.7 6.00001C19.5 6.00001 20.2333 6.14168 20.9 6.42501C21.5667 6.70835 22.1833 7.13335 22.75 7.70001L17.4 13.05L19.8 15.45L18.6 16.65L23.8 21.85L29.9 15.75C29.6333 15.3167 29.425 14.8167 29.275 14.25C29.125 13.6833 29.05 13.0833 29.05 12.45C29.05 10.6833 29.6917 9.15835 30.975 7.87501C32.2583 6.59168 33.7833 5.95001 35.55 5.95001C36.05 5.95001 36.475 6.00001 36.825 6.10001C37.175 6.20001 37.4667 6.33335 37.7 6.50001L33.45 10.75L37.2 14.5L41.45 10.25C41.6167 10.5167 41.7583 10.8417 41.875 11.225C41.9917 11.6083 42.05 12.05 42.05 12.55C42.05 14.3167 41.4083 15.8417 40.125 17.125C38.8417 18.4083 37.3167 19.05 35.55 19.05C34.95 19.05 34.4333 19.0083 34 18.925C33.5667 18.8417 33.1667 18.7167 32.8 18.55L9.35 42Z" fill="#0482C9"/>
</g>
<g filter="url(#filter2_d_1_9)">
<path d="M53.112 37.692C53.416 37.74 53.692 37.864 53.94 38.064C54.196 38.264 54.396 38.512 54.54 38.808C54.692 39.104 54.768 39.42 54.768 39.756C54.768 40.18 54.66 40.564 54.444 40.908C54.228 41.244 53.912 41.512 53.496 41.712C53.088 41.904 52.604 42 52.044 42H48.924V33.636H51.924C52.492 33.636 52.976 33.732 53.376 33.924C53.776 34.108 54.076 34.36 54.276 34.68C54.476 35 54.576 35.36 54.576 35.76C54.576 36.256 54.44 36.668 54.168 36.996C53.904 37.316 53.552 37.548 53.112 37.692ZM50.016 37.248H51.852C52.364 37.248 52.76 37.128 53.04 36.888C53.32 36.648 53.46 36.316 53.46 35.892C53.46 35.468 53.32 35.136 53.04 34.896C52.76 34.656 52.356 34.536 51.828 34.536H50.016V37.248ZM51.948 41.1C52.492 41.1 52.916 40.972 53.22 40.716C53.524 40.46 53.676 40.104 53.676 39.648C53.676 39.184 53.516 38.82 53.196 38.556C52.876 38.284 52.448 38.148 51.912 38.148H50.016V41.1H51.948ZM62.1154 35.424V42H61.0234V41.028C60.8154 41.364 60.5234 41.628 60.1474 41.82C59.7794 42.004 59.3714 42.096 58.9234 42.096C58.4114 42.096 57.9514 41.992 57.5434 41.784C57.1354 41.568 56.8114 41.248 56.5714 40.824C56.3394 40.4 56.2234 39.884 56.2234 39.276V35.424H57.3034V39.132C57.3034 39.78 57.4674 40.28 57.7954 40.632C58.1234 40.976 58.5714 41.148 59.1394 41.148C59.7234 41.148 60.1834 40.968 60.5194 40.608C60.8554 40.248 61.0234 39.724 61.0234 39.036V35.424H62.1154ZM64.5232 34.356C64.3152 34.356 64.1392 34.284 63.9952 34.14C63.8512 33.996 63.7792 33.82 63.7792 33.612C63.7792 33.404 63.8512 33.228 63.9952 33.084C64.1392 32.94 64.3152 32.868 64.5232 32.868C64.7232 32.868 64.8912 32.94 65.0272 33.084C65.1712 33.228 65.2432 33.404 65.2432 33.612C65.2432 33.82 65.1712 33.996 65.0272 34.14C64.8912 34.284 64.7232 34.356 64.5232 34.356ZM65.0512 35.424V42H63.9592V35.424H65.0512ZM68.0043 33.12V42H66.9123V33.12H68.0043ZM69.4574 38.688C69.4574 38.016 69.5934 37.428 69.8654 36.924C70.1374 36.412 70.5094 36.016 70.9814 35.736C71.4614 35.456 71.9974 35.316 72.5894 35.316C73.1014 35.316 73.5774 35.436 74.0174 35.676C74.4574 35.908 74.7934 36.216 75.0254 36.6V33.12H76.1294V42H75.0254V40.764C74.8094 41.156 74.4894 41.48 74.0654 41.736C73.6414 41.984 73.1454 42.108 72.5774 42.108C71.9934 42.108 71.4614 41.964 70.9814 41.676C70.5094 41.388 70.1374 40.984 69.8654 40.464C69.5934 39.944 69.4574 39.352 69.4574 38.688ZM75.0254 38.7C75.0254 38.204 74.9254 37.772 74.7254 37.404C74.5254 37.036 74.2534 36.756 73.9094 36.564C73.5734 36.364 73.2014 36.264 72.7934 36.264C72.3854 36.264 72.0134 36.36 71.6774 36.552C71.3414 36.744 71.0734 37.024 70.8734 37.392C70.6734 37.76 70.5734 38.192 70.5734 38.688C70.5734 39.192 70.6734 39.632 70.8734 40.008C71.0734 40.376 71.3414 40.66 71.6774 40.86C72.0134 41.052 72.3854 41.148 72.7934 41.148C73.2014 41.148 73.5734 41.052 73.9094 40.86C74.2534 40.66 74.5254 40.376 74.7254 40.008C74.9254 39.632 75.0254 39.196 75.0254 38.7ZM87.03 33.636L84.306 38.844V42H83.214V38.844L80.478 33.636H81.69L83.754 37.872L85.818 33.636H87.03ZM91.0498 42.108C90.4338 42.108 89.8738 41.968 89.3698 41.688C88.8738 41.408 88.4818 41.012 88.1938 40.5C87.9138 39.98 87.7738 39.38 87.7738 38.7C87.7738 38.028 87.9178 37.436 88.2058 36.924C88.5018 36.404 88.9018 36.008 89.4058 35.736C89.9098 35.456 90.4738 35.316 91.0978 35.316C91.7218 35.316 92.2858 35.456 92.7898 35.736C93.2938 36.008 93.6898 36.4 93.9778 36.912C94.2738 37.424 94.4218 38.02 94.4218 38.7C94.4218 39.38 94.2698 39.98 93.9658 40.5C93.6698 41.012 93.2658 41.408 92.7538 41.688C92.2418 41.968 91.6738 42.108 91.0498 42.108ZM91.0498 41.148C91.4418 41.148 91.8098 41.056 92.1538 40.872C92.4978 40.688 92.7738 40.412 92.9818 40.044C93.1978 39.676 93.3058 39.228 93.3058 38.7C93.3058 38.172 93.2018 37.724 92.9938 37.356C92.7858 36.988 92.5138 36.716 92.1778 36.54C91.8418 36.356 91.4778 36.264 91.0858 36.264C90.6858 36.264 90.3178 36.356 89.9818 36.54C89.6538 36.716 89.3898 36.988 89.1898 37.356C88.9898 37.724 88.8898 38.172 88.8898 38.7C88.8898 39.236 88.9858 39.688 89.1778 40.056C89.3778 40.424 89.6418 40.7 89.9698 40.884C90.2978 41.06 90.6578 41.148 91.0498 41.148ZM101.69 35.424V42H100.598V41.028C100.39 41.364 100.098 41.628 99.7216 41.82C99.3536 42.004 98.9456 42.096 98.4976 42.096C97.9856 42.096 97.5256 41.992 97.1176 41.784C96.7096 41.568 96.3856 41.248 96.1456 40.824C95.9136 40.4 95.7976 39.884 95.7976 39.276V35.424H96.8776V39.132C96.8776 39.78 97.0416 40.28 97.3696 40.632C97.6976 40.976 98.1456 41.148 98.7136 41.148C99.2976 41.148 99.7576 40.968 100.094 40.608C100.43 40.248 100.598 39.724 100.598 39.036V35.424H101.69ZM104.625 36.492C104.817 36.116 105.089 35.824 105.441 35.616C105.801 35.408 106.237 35.304 106.749 35.304V36.432H106.461C105.237 36.432 104.625 37.096 104.625 38.424V42H103.533V35.424H104.625V36.492ZM113.813 33.636C114.725 33.636 115.513 33.808 116.177 34.152C116.849 34.488 117.361 34.972 117.713 35.604C118.073 36.236 118.253 36.98 118.253 37.836C118.253 38.692 118.073 39.436 117.713 40.068C117.361 40.692 116.849 41.172 116.177 41.508C115.513 41.836 114.725 42 113.813 42H111.209V33.636H113.813ZM113.813 41.1C114.893 41.1 115.717 40.816 116.285 40.248C116.853 39.672 117.137 38.868 117.137 37.836C117.137 36.796 116.849 35.984 116.273 35.4C115.705 34.816 114.885 34.524 113.813 34.524H112.301V41.1H113.813ZM120.786 36.492C120.978 36.116 121.25 35.824 121.602 35.616C121.962 35.408 122.398 35.304 122.91 35.304V36.432H122.622C121.398 36.432 120.786 37.096 120.786 38.424V42H119.694V35.424H120.786V36.492ZM130.17 38.46C130.17 38.668 130.158 38.888 130.134 39.12H124.878C124.918 39.768 125.138 40.276 125.538 40.644C125.946 41.004 126.438 41.184 127.014 41.184C127.486 41.184 127.878 41.076 128.19 40.86C128.51 40.636 128.734 40.34 128.862 39.972H130.038C129.862 40.604 129.51 41.12 128.982 41.52C128.454 41.912 127.798 42.108 127.014 42.108C126.39 42.108 125.83 41.968 125.334 41.688C124.846 41.408 124.462 41.012 124.182 40.5C123.902 39.98 123.762 39.38 123.762 38.7C123.762 38.02 123.898 37.424 124.17 36.912C124.442 36.4 124.822 36.008 125.31 35.736C125.806 35.456 126.374 35.316 127.014 35.316C127.638 35.316 128.19 35.452 128.67 35.724C129.15 35.996 129.518 36.372 129.774 36.852C130.038 37.324 130.17 37.86 130.17 38.46ZM129.042 38.232C129.042 37.816 128.95 37.46 128.766 37.164C128.582 36.86 128.33 36.632 128.01 36.48C127.698 36.32 127.35 36.24 126.966 36.24C126.414 36.24 125.942 36.416 125.55 36.768C125.166 37.12 124.946 37.608 124.89 38.232H129.042ZM131.204 38.688C131.204 38.016 131.34 37.428 131.612 36.924C131.884 36.412 132.256 36.016 132.728 35.736C133.208 35.456 133.74 35.316 134.324 35.316C134.9 35.316 135.4 35.44 135.824 35.688C136.248 35.936 136.564 36.248 136.772 36.624V35.424H137.876V42H136.772V40.776C136.556 41.16 136.232 41.48 135.8 41.736C135.376 41.984 134.88 42.108 134.312 42.108C133.728 42.108 133.2 41.964 132.728 41.676C132.256 41.388 131.884 40.984 131.612 40.464C131.34 39.944 131.204 39.352 131.204 38.688ZM136.772 38.7C136.772 38.204 136.672 37.772 136.472 37.404C136.272 37.036 136 36.756 135.656 36.564C135.32 36.364 134.948 36.264 134.54 36.264C134.132 36.264 133.76 36.36 133.424 36.552C133.088 36.744 132.82 37.024 132.62 37.392C132.42 37.76 132.32 38.192 132.32 38.688C132.32 39.192 132.42 39.632 132.62 40.008C132.82 40.376 133.088 40.66 133.424 40.86C133.76 41.052 134.132 41.148 134.54 41.148C134.948 41.148 135.32 41.052 135.656 40.86C136 40.66 136.272 40.376 136.472 40.008C136.672 39.632 136.772 39.196 136.772 38.7ZM147.629 35.304C148.141 35.304 148.597 35.412 148.997 35.628C149.397 35.836 149.713 36.152 149.945 36.576C150.177 37 150.293 37.516 150.293 38.124V42H149.213V38.28C149.213 37.624 149.049 37.124 148.721 36.78C148.401 36.428 147.965 36.252 147.413 36.252C146.845 36.252 146.393 36.436 146.057 36.804C145.721 37.164 145.553 37.688 145.553 38.376V42H144.473V38.28C144.473 37.624 144.309 37.124 143.981 36.78C143.661 36.428 143.225 36.252 142.673 36.252C142.105 36.252 141.653 36.436 141.317 36.804C140.981 37.164 140.813 37.688 140.813 38.376V42H139.721V35.424H140.813V36.372C141.029 36.028 141.317 35.764 141.677 35.58C142.045 35.396 142.449 35.304 142.889 35.304C143.441 35.304 143.929 35.428 144.353 35.676C144.777 35.924 145.093 36.288 145.301 36.768C145.485 36.304 145.789 35.944 146.213 35.688C146.637 35.432 147.109 35.304 147.629 35.304Z" fill="#059A38"/>
</g>
<defs>
<filter id="filter0_d_1_9" x="45.9975" y="5.09021" width="100.15" height="32.3075" filterUnits="userSpaceOnUse" color-interpolation-filters="sRGB">
<feFlood flood-opacity="0" result="BackgroundImageFix"/>
<feColorMatrix in="SourceAlpha" type="matrix" values="0 0 0 0 0 0 0 0 0 0 0 0 0 0 0 0 0 0 127 0" result="hardAlpha"/>
<feOffset dy="4"/>
<feGaussianBlur stdDeviation="2"/>
<feComposite in2="hardAlpha" operator="out"/>
<feColorMatrix type="matrix" values="0 0 0 0 0 0 0 0 0 0 0 0 0 0 0 0 0 0 0.25 0"/>
<feBlend mode="normal" in2="BackgroundImageFix" result="effect1_dropShadow_1_9"/>
<feBlend mode="normal" in="SourceGraphic" in2="effect1_dropShadow_1_9" result="shape"/>
</filter>
<filter id="filter1_d_1_9" x="-4" y="0" width="56" height="56" filterUnits="userSpaceOnUse" color-interpolation-filters="sRGB">
<feFlood flood-opacity="0" result="BackgroundImageFix"/>
<feColorMatrix in="SourceAlpha" type="matrix" values="0 0 0 0 0 0 0 0 0 0 0 0 0 0 0 0 0 0 127 0" result="hardAlpha"/>
<feOffset dy="4"/>
<feGaussianBlur stdDeviation="2"/>
<feComposite in2="hardAlpha" operator="out"/>
<feColorMatrix type="matrix" values="0 0 0 0 0 0 0 0 0 0 0 0 0 0 0 0 0 0 0.25 0"/>
<feBlend mode="normal" in2="BackgroundImageFix" result="effect1_dropShadow_1_9"/>
<feBlend mode="normal" in="SourceGraphic" in2="effect1_dropShadow_1_9" result="shape"/>
</filter>
<filter id="filter2_d_1_9" x="44.924" y="32.868" width="109.369" height="17.24" filterUnits="userSpaceOnUse" color-interpolation-filters="sRGB">
<feFlood flood-opacity="0" result="BackgroundImageFix"/>
<feColorMatrix in="SourceAlpha" type="matrix" values="0 0 0 0 0 0 0 0 0 0 0 0 0 0 0 0 0 0 127 0" result="hardAlpha"/>
<feOffset dy="4"/>
<feGaussianBlur stdDeviation="2"/>
<feComposite in2="hardAlpha" operator="out"/>
<feColorMatrix type="matrix" values="0 0 0 0 0 0 0 0 0 0 0 0 0 0 0 0 0 0 0.25 0"/>
<feBlend mode="normal" in2="BackgroundImageFix" result="effect1_dropShadow_1_9"/>
<feBlend mode="normal" in="SourceGraphic" in2="effect1_dropShadow_1_9" result="shape"/>
</filter>
</defs>
</svg>
