<svg width="154" height="50" viewBox="0 0 154 50" fill="none" xmlns="http://www.w3.org/2000/svg">
<g filter="url(#filter0_d_1_9)">
<path d="M49.9975 24V5.81818H56.6559C57.9461 5.81818 59.0144 6.03125 59.8608 6.45739C60.7071 6.8776 61.3404 7.44874 61.7607 8.17081C62.1809 8.88696 62.391 9.69484 62.391 10.5945C62.391 11.352 62.2519 11.9912 61.9737 12.5121C61.6955 13.027 61.3227 13.4413 60.8551 13.755C60.3935 14.0627 59.8845 14.2876 59.3281 14.4297V14.6072C59.9318 14.6368 60.5207 14.8321 61.0948 15.1932C61.6748 15.5483 62.1542 16.0543 62.533 16.7113C62.9118 17.3683 63.1012 18.1673 63.1012 19.1083C63.1012 20.0375 62.8822 20.872 62.4442 21.6119C62.0122 22.3458 61.3434 22.9287 60.4379 23.3608C59.5323 23.7869 58.3752 24 56.9666 24H49.9975ZM52.7408 21.6474H56.7003C58.0142 21.6474 58.9553 21.3929 59.5234 20.8839C60.0916 20.3749 60.3757 19.7386 60.3757 18.9751C60.3757 18.401 60.2307 17.8743 59.9407 17.3949C59.6507 16.9155 59.2364 16.5337 58.6978 16.2496C58.1651 15.9656 57.5318 15.8235 56.7979 15.8235H52.7408V21.6474ZM52.7408 13.6839H56.4162C57.0317 13.6839 57.5851 13.5656 58.0763 13.3288C58.5735 13.0921 58.9671 12.7607 59.2571 12.3345C59.553 11.9025 59.701 11.3935 59.701 10.8075C59.701 10.0559 59.4376 9.42554 58.9109 8.91655C58.3841 8.40755 57.5762 8.15305 56.4872 8.15305H52.7408V13.6839ZM74.78 18.3448V10.3636H77.4434V24H74.8333V21.6385H74.6912C74.3775 22.3665 73.8745 22.9731 73.182 23.4585C72.4954 23.9379 71.6402 24.1776 70.6163 24.1776C69.7404 24.1776 68.965 23.9852 68.2903 23.6005C67.6215 23.2099 67.0948 22.6328 66.71 21.8693C66.3313 21.1058 66.1419 20.1618 66.1419 19.0373V10.3636H68.7963V18.7177C68.7963 19.6469 69.0538 20.3867 69.5687 20.9371C70.0836 21.4876 70.7524 21.7628 71.5751 21.7628C72.0723 21.7628 72.5665 21.6385 73.0577 21.3899C73.5549 21.1413 73.9662 20.7655 74.2917 20.2624C74.6232 19.7594 74.7859 19.1201 74.78 18.3448ZM81.01 24V10.3636H83.6645V24H81.01ZM82.3506 8.25959C81.8889 8.25959 81.4924 8.1057 81.161 7.79794C80.8354 7.48426 80.6727 7.11139 80.6727 6.67933C80.6727 6.24136 80.8354 5.86849 81.161 5.56072C81.4924 5.24704 81.8889 5.0902 82.3506 5.0902C82.8122 5.0902 83.2058 5.24704 83.5313 5.56072C83.8628 5.86849 84.0285 6.24136 84.0285 6.67933C84.0285 7.11139 83.8628 7.48426 83.5313 7.79794C83.2058 8.1057 82.8122 8.25959 82.3506 8.25959ZM89.8901 5.81818V24H87.2356V5.81818H89.8901ZM98.566 24.2663C97.4651 24.2663 96.4826 23.9852 95.6185 23.4229C94.7603 22.8548 94.0856 22.0469 93.5944 20.9993C93.109 19.9458 92.8664 18.6822 92.8664 17.2085C92.8664 15.7347 93.112 14.4741 93.6032 13.4265C94.1004 12.3789 94.781 11.5769 95.6452 11.0206C96.5093 10.4643 97.4888 10.1861 98.5837 10.1861C99.4301 10.1861 100.111 10.3281 100.626 10.6122C101.146 10.8904 101.549 11.2159 101.833 11.5888C102.123 11.9616 102.348 12.2901 102.508 12.5742H102.668V5.81818H105.322V24H102.73V21.8782H102.508C102.348 22.1682 102.117 22.4996 101.815 22.8725C101.519 23.2454 101.111 23.5709 100.59 23.8491C100.069 24.1272 99.3946 24.2663 98.566 24.2663ZM99.1519 22.0025C99.9154 22.0025 100.561 21.8013 101.087 21.3988C101.62 20.9904 102.022 20.4252 102.295 19.7031C102.573 18.9811 102.712 18.1406 102.712 17.1818C102.712 16.2348 102.576 15.4062 102.304 14.696C102.031 13.9858 101.632 13.4324 101.105 13.0359C100.578 12.6393 99.9272 12.4411 99.1519 12.4411C98.3529 12.4411 97.6871 12.6482 97.1544 13.0625C96.6217 13.4768 96.2193 14.042 95.947 14.7582C95.6807 15.4743 95.5475 16.2822 95.5475 17.1818C95.5475 18.0933 95.6836 18.913 95.9559 19.641C96.2281 20.369 96.6306 20.946 97.1633 21.3722C97.7019 21.7924 98.3647 22.0025 99.1519 22.0025ZM109.111 24V10.3636H111.765V24H109.111ZM110.451 8.25959C109.99 8.25959 109.593 8.1057 109.262 7.79794C108.936 7.48426 108.773 7.11139 108.773 6.67933C108.773 6.24136 108.936 5.86849 109.262 5.56072C109.593 5.24704 109.99 5.0902 110.451 5.0902C110.913 5.0902 111.306 5.24704 111.632 5.56072C111.963 5.86849 112.129 6.24136 112.129 6.67933C112.129 7.11139 111.963 7.48426 111.632 7.79794C111.306 8.1057 110.913 8.25959 110.451 8.25959ZM117.991 15.9034V24H115.336V10.3636H117.884V12.5831H118.053C118.367 11.861 118.858 11.281 119.527 10.843C120.201 10.4051 121.051 10.1861 122.074 10.1861C123.004 10.1861 123.818 10.3814 124.516 10.772C125.214 11.1567 125.756 11.7308 126.141 12.4943C126.525 13.2578 126.718 14.2018 126.718 15.3263V24H124.063V15.646C124.063 14.6576 123.806 13.8852 123.291 13.3288C122.776 12.7666 122.069 12.4854 121.169 12.4854C120.553 12.4854 120.006 12.6186 119.527 12.8849C119.053 13.1513 118.677 13.5419 118.399 14.0568C118.127 14.5658 117.991 15.1813 117.991 15.9034ZM135.995 29.3977C134.912 29.3977 133.98 29.2557 133.198 28.9716C132.423 28.6875 131.79 28.3117 131.299 27.8441C130.807 27.3765 130.44 26.8646 130.198 26.3082L132.479 25.3672C132.639 25.6276 132.852 25.9028 133.119 26.1928C133.391 26.4888 133.758 26.7403 134.219 26.9474C134.687 27.1546 135.288 27.2582 136.022 27.2582C137.028 27.2582 137.859 27.0125 138.516 26.5213C139.173 26.036 139.502 25.2607 139.502 24.1953V21.5142H139.333C139.173 21.8042 138.942 22.1268 138.641 22.4819C138.345 22.837 137.936 23.1448 137.415 23.4052C136.895 23.6656 136.217 23.7958 135.382 23.7958C134.305 23.7958 133.335 23.5443 132.47 23.0412C131.612 22.5322 130.932 21.7835 130.429 20.7951C129.931 19.8008 129.683 18.5786 129.683 17.1286C129.683 15.6785 129.928 14.4356 130.42 13.3999C130.917 12.3641 131.597 11.571 132.462 11.0206C133.326 10.4643 134.305 10.1861 135.4 10.1861C136.246 10.1861 136.93 10.3281 137.451 10.6122C137.972 10.8904 138.377 11.2159 138.667 11.5888C138.963 11.9616 139.191 12.2901 139.351 12.5742H139.546V10.3636H142.147V24.3018C142.147 25.4737 141.875 26.4355 141.331 27.1871C140.786 27.9388 140.049 28.4951 139.12 28.8562C138.197 29.2172 137.155 29.3977 135.995 29.3977ZM135.968 21.5941C136.732 21.5941 137.377 21.4165 137.904 21.0614C138.436 20.7004 138.839 20.1855 139.111 19.5167C139.389 18.842 139.528 18.0341 139.528 17.093C139.528 16.1757 139.392 15.3678 139.12 14.6694C138.848 13.971 138.448 13.4265 137.921 13.0359C137.395 12.6393 136.744 12.4411 135.968 12.4411C135.169 12.4411 134.503 12.6482 133.971 13.0625C133.438 13.4709 133.036 14.0272 132.763 14.7315C132.497 15.4358 132.364 16.223 132.364 17.093C132.364 17.9867 132.5 18.771 132.772 19.4457C133.045 20.1204 133.447 20.6471 133.98 21.0259C134.518 21.4047 135.181 21.5941 135.968 21.5941Z" fill="#067DD2"/>
</g>
<g filter="url(#filter1_d_1_9)">
<path d="M38.4 42L25.85 29.45L28.7 26.6L41.25 39.15L38.4 42ZM9.35 42L6.5 39.15L21 24.65L15.65 19.3L14.5 20.45L12.3 18.25V22.5L11.1 23.7L5 17.6L6.2 16.4H10.5L8.1 14L14.65 7.45001C15.2167 6.88335 15.8333 6.50001 16.5 6.30001C17.1667 6.10001 17.9 6.00001 18.7 6.00001C19.5 6.00001 20.2333 6.14168 20.9 6.42501C21.5667 6.70835 22.1833 7.13335 22.75 7.70001L17.4 13.05L19.8 15.45L18.6 16.65L23.8 21.85L29.9 15.75C29.6333 15.3167 29.425 14.8167 29.275 14.25C29.125 13.6833 29.05 13.0833 29.05 12.45C29.05 10.6833 29.6917 9.15835 30.975 7.87501C32.2583 6.59168 33.7833 5.95001 35.55 5.95001C36.05 5.95001 36.475 6.00001 36.825 6.10001C37.175 6.20001 37.4667 6.33335 37.7 6.50001L33.45 10.75L37.2 14.5L41.45 10.25C41.6167 10.5167 41.7583 10.8417 41.875 11.225C41.9917 11.6083 42.05 12.05 42.05 12.55C42.05 14.3167 41.4083 15.8417 40.125 17.125C38.8417 18.4083 37.3167 19.05 35.55 19.05C34.95 19.05 34.4333 19.0083 34 18.925C33.5667 18.8417 33.1667 18.7167 32.8 18.55L9.35 42Z" fill="#0482C9"/>
</g>
<path d="M55.056 35.76C54.968 36.256 54.76 36.668 54.432 36.996C54.112 37.316 53.72 37.548 53.256 37.692C53.648 37.756 53.968 37.948 54.216 38.268C54.464 38.58 54.588 38.952 54.588 39.384C54.588 39.512 54.576 39.636 54.552 39.756C54.48 40.18 54.304 40.564 54.024 40.908C53.752 41.244 53.392 41.512 52.944 41.712C52.496 41.904 51.992 42 51.432 42H48.312L49.8 33.636H52.8C53.552 33.636 54.12 33.796 54.504 34.116C54.896 34.436 55.092 34.852 55.092 35.364C55.092 35.492 55.08 35.624 55.056 35.76ZM53.928 35.892C53.944 35.82 53.952 35.72 53.952 35.592C53.952 35.248 53.832 34.98 53.592 34.788C53.352 34.596 53.004 34.5 52.548 34.5H50.736L50.244 37.272H52.08C52.584 37.272 53 37.152 53.328 36.912C53.656 36.664 53.856 36.324 53.928 35.892ZM53.472 39.648C53.496 39.536 53.508 39.432 53.508 39.336C53.508 38.968 53.372 38.676 53.1 38.46C52.828 38.244 52.456 38.136 51.984 38.136H50.088L49.56 41.136H51.492C52.028 41.136 52.472 41.004 52.824 40.74C53.176 40.476 53.392 40.112 53.472 39.648ZM62.6674 35.424L61.5034 42H60.4114L60.5794 41.04C60.3154 41.376 59.9794 41.636 59.5714 41.82C59.1634 42.004 58.7394 42.096 58.2994 42.096C57.6114 42.096 57.0594 41.912 56.6434 41.544C56.2354 41.168 56.0314 40.632 56.0314 39.936C56.0314 39.76 56.0514 39.54 56.0914 39.276L56.7754 35.424H57.8554L57.2074 39.132C57.1754 39.3 57.1594 39.476 57.1594 39.66C57.1594 40.148 57.2914 40.52 57.5554 40.776C57.8274 41.024 58.2034 41.148 58.6834 41.148C59.2594 41.148 59.7474 40.968 60.1474 40.608C60.5554 40.248 60.8154 39.724 60.9274 39.036V39.072L61.5754 35.424H62.6674ZM65.2552 34.356C65.0792 34.356 64.9312 34.3 64.8112 34.188C64.6992 34.068 64.6432 33.92 64.6432 33.744C64.6432 33.504 64.7312 33.3 64.9072 33.132C65.0832 32.956 65.2872 32.868 65.5192 32.868C65.7032 32.868 65.8512 32.924 65.9632 33.036C66.0752 33.148 66.1312 33.296 66.1312 33.48C66.1312 33.72 66.0432 33.928 65.8672 34.104C65.6912 34.272 65.4872 34.356 65.2552 34.356ZM65.6032 35.424L64.4392 42H63.3472L64.5112 35.424H65.6032ZM68.9643 33.12L67.3923 42H66.3003L67.8723 33.12H68.9643ZM69.4214 38.688C69.5414 38.016 69.7814 37.428 70.1414 36.924C70.5094 36.412 70.9574 36.016 71.4854 35.736C72.0134 35.456 72.5734 35.316 73.1654 35.316C73.6694 35.316 74.1214 35.436 74.5214 35.676C74.9214 35.908 75.2054 36.216 75.3734 36.6L75.9854 33.12H77.0894L75.5174 42H74.4134L74.6414 40.764C74.3614 41.156 73.9854 41.48 73.5134 41.736C73.0414 41.984 72.5214 42.108 71.9534 42.108C71.4414 42.108 70.9894 42 70.5974 41.784C70.2054 41.56 69.8974 41.244 69.6734 40.836C69.4574 40.428 69.3494 39.956 69.3494 39.42C69.3494 39.18 69.3734 38.936 69.4214 38.688ZM75.0014 38.7C75.0334 38.532 75.0494 38.352 75.0494 38.16C75.0494 37.576 74.8734 37.116 74.5214 36.78C74.1774 36.436 73.7374 36.264 73.2014 36.264C72.7934 36.264 72.4014 36.36 72.0254 36.552C71.6574 36.744 71.3414 37.024 71.0774 37.392C70.8134 37.76 70.6374 38.192 70.5494 38.688C70.5174 38.856 70.5014 39.04 70.5014 39.24C70.5014 39.832 70.6734 40.3 71.0174 40.644C71.3614 40.98 71.8014 41.148 72.3374 41.148C72.7454 41.148 73.1334 41.052 73.5014 40.86C73.8774 40.66 74.1974 40.376 74.4614 40.008C74.7334 39.632 74.9134 39.196 75.0014 38.7ZM88.281 33.636L84.633 38.844L84.069 42H82.977L83.541 38.844L81.717 33.636H82.941L84.249 37.848L87.045 33.636H88.281ZM90.8368 42.108C90.2848 42.108 89.7968 41.996 89.3728 41.772C88.9568 41.54 88.6328 41.22 88.4008 40.812C88.1688 40.396 88.0528 39.916 88.0528 39.372C88.0528 38.628 88.2248 37.948 88.5688 37.332C88.9128 36.708 89.3848 36.216 89.9848 35.856C90.5928 35.496 91.2688 35.316 92.0128 35.316C92.5648 35.316 93.0528 35.432 93.4768 35.664C93.9088 35.888 94.2408 36.208 94.4728 36.624C94.7128 37.032 94.8328 37.512 94.8328 38.064C94.8328 38.808 94.6568 39.488 94.3048 40.104C93.9528 40.72 93.4728 41.208 92.8648 41.568C92.2568 41.928 91.5808 42.108 90.8368 42.108ZM90.9688 41.184C91.4888 41.184 91.9568 41.044 92.3728 40.764C92.7888 40.476 93.1128 40.1 93.3448 39.636C93.5848 39.164 93.7048 38.66 93.7048 38.124C93.7048 37.516 93.5288 37.052 93.1768 36.732C92.8248 36.404 92.3848 36.24 91.8568 36.24C91.3368 36.24 90.8728 36.384 90.4648 36.672C90.0568 36.952 89.7408 37.328 89.5168 37.8C89.2928 38.272 89.1808 38.78 89.1808 39.324C89.1808 39.916 89.3488 40.376 89.6848 40.704C90.0208 41.024 90.4488 41.184 90.9688 41.184ZM102.617 35.424L101.453 42H100.361L100.529 41.04C100.265 41.376 99.9286 41.636 99.5206 41.82C99.1126 42.004 98.6886 42.096 98.2486 42.096C97.5606 42.096 97.0086 41.912 96.5926 41.544C96.1846 41.168 95.9806 40.632 95.9806 39.936C95.9806 39.76 96.0006 39.54 96.0406 39.276L96.7246 35.424H97.8046L97.1566 39.132C97.1246 39.3 97.1086 39.476 97.1086 39.66C97.1086 40.148 97.2406 40.52 97.5046 40.776C97.7766 41.024 98.1526 41.148 98.6326 41.148C99.2086 41.148 99.6966 40.968 100.097 40.608C100.505 40.248 100.765 39.724 100.877 39.036V39.072L101.525 35.424H102.617ZM105.336 36.672C105.6 36.24 105.932 35.904 106.332 35.664C106.732 35.424 107.188 35.304 107.7 35.304L107.496 36.432H107.208C106.64 36.432 106.164 36.584 105.78 36.888C105.404 37.192 105.152 37.704 105.024 38.424L104.388 42H103.296L104.46 35.424H105.552L105.336 36.672ZM115.439 33.636C116.631 33.636 117.555 33.924 118.211 34.5C118.875 35.076 119.207 35.876 119.207 36.9C119.207 37.22 119.179 37.532 119.123 37.836C118.971 38.692 118.659 39.436 118.187 40.068C117.723 40.692 117.127 41.172 116.399 41.508C115.679 41.836 114.863 42 113.951 42H111.347L112.835 33.636H115.439ZM114.107 41.16C115.179 41.16 116.051 40.868 116.723 40.284C117.395 39.692 117.823 38.876 118.007 37.836C118.055 37.548 118.079 37.276 118.079 37.02C118.079 36.228 117.843 35.616 117.371 35.184C116.899 34.744 116.203 34.524 115.283 34.524H113.771L112.595 41.16H114.107ZM121.872 36.672C122.136 36.24 122.468 35.904 122.868 35.664C123.268 35.424 123.724 35.304 124.236 35.304L124.032 36.432H123.744C123.176 36.432 122.7 36.584 122.316 36.888C121.94 37.192 121.688 37.704 121.56 38.424L120.924 42H119.832L120.996 35.424H122.088L121.872 36.672ZM128.328 35.316C128.88 35.316 129.356 35.424 129.756 35.64C130.164 35.848 130.472 36.144 130.68 36.528C130.896 36.904 131.004 37.336 131.004 37.824C131.004 37.992 130.984 38.196 130.944 38.436C130.912 38.644 130.86 38.86 130.788 39.084H125.532C125.516 39.244 125.508 39.36 125.508 39.432C125.508 39.984 125.672 40.416 126 40.728C126.336 41.032 126.772 41.184 127.308 41.184C127.78 41.184 128.192 41.076 128.544 40.86C128.904 40.636 129.176 40.34 129.36 39.972H130.536C130.248 40.604 129.804 41.12 129.204 41.52C128.612 41.912 127.924 42.108 127.14 42.108C126.316 42.108 125.652 41.872 125.148 41.4C124.652 40.92 124.404 40.268 124.404 39.444C124.404 39.212 124.428 38.964 124.476 38.7C124.596 38.02 124.84 37.424 125.208 36.912C125.576 36.4 126.028 36.008 126.564 35.736C127.108 35.456 127.696 35.316 128.328 35.316ZM129.84 38.292C129.864 38.132 129.876 37.984 129.876 37.848C129.876 37.336 129.712 36.94 129.384 36.66C129.064 36.38 128.644 36.24 128.124 36.24C127.564 36.24 127.056 36.424 126.6 36.792C126.144 37.152 125.836 37.652 125.676 38.292H129.84ZM131.918 38.688C132.038 38.016 132.278 37.428 132.638 36.924C133.006 36.412 133.45 36.016 133.97 35.736C134.498 35.456 135.058 35.316 135.65 35.316C136.226 35.316 136.702 35.44 137.078 35.688C137.454 35.936 137.714 36.248 137.858 36.624L138.074 35.424H139.178L138.014 42H136.91L137.138 40.776C136.85 41.16 136.47 41.48 135.998 41.736C135.526 41.984 135.006 42.108 134.438 42.108C133.926 42.108 133.474 42 133.082 41.784C132.69 41.56 132.386 41.244 132.17 40.836C131.954 40.428 131.846 39.956 131.846 39.42C131.846 39.18 131.87 38.936 131.918 38.688ZM137.497 38.7C137.53 38.532 137.546 38.352 137.546 38.16C137.546 37.576 137.37 37.116 137.018 36.78C136.674 36.436 136.234 36.264 135.698 36.264C135.29 36.264 134.898 36.36 134.521 36.552C134.154 36.744 133.838 37.024 133.574 37.392C133.31 37.76 133.134 38.192 133.046 38.688C133.014 38.856 132.998 39.04 132.998 39.24C132.998 39.832 133.17 40.3 133.514 40.644C133.858 40.98 134.298 41.148 134.834 41.148C135.242 41.148 135.63 41.052 135.998 40.86C136.374 40.66 136.694 40.376 136.958 40.008C137.23 39.632 137.41 39.196 137.497 38.7ZM148.955 35.304C149.627 35.304 150.163 35.488 150.563 35.856C150.971 36.216 151.175 36.744 151.175 37.44C151.175 37.696 151.155 37.924 151.115 38.124L150.431 42H149.351L150.011 38.28C150.043 38.112 150.059 37.932 150.059 37.74C150.059 37.252 149.927 36.884 149.663 36.636C149.407 36.38 149.043 36.252 148.571 36.252C148.027 36.252 147.559 36.42 147.167 36.756C146.783 37.084 146.519 37.56 146.375 38.184L145.691 42H144.611L145.271 38.28C145.303 38.096 145.319 37.912 145.319 37.728C145.319 37.248 145.187 36.884 144.923 36.636C144.667 36.38 144.303 36.252 143.831 36.252C143.263 36.252 142.779 36.436 142.379 36.804C141.979 37.164 141.719 37.688 141.599 38.376V38.352L140.951 42H139.859L141.023 35.424H142.115L141.947 36.372C142.219 36.028 142.555 35.764 142.955 35.58C143.355 35.396 143.775 35.304 144.215 35.304C144.767 35.304 145.231 35.428 145.607 35.676C145.991 35.924 146.243 36.288 146.363 36.768C146.635 36.304 147.003 35.944 147.467 35.688C147.939 35.432 148.435 35.304 148.955 35.304Z" fill="#02912A"/>
<defs>
<filter id="filter0_d_1_9" x="45.9975" y="5.09021" width="100.15" height="32.3075" filterUnits="userSpaceOnUse" color-interpolation-filters="sRGB">
<feFlood flood-opacity="0" result="BackgroundImageFix"/>
<feColorMatrix in="SourceAlpha" type="matrix" values="0 0 0 0 0 0 0 0 0 0 0 0 0 0 0 0 0 0 127 0" result="hardAlpha"/>
<feOffset dy="4"/>
<feGaussianBlur stdDeviation="2"/>
<feComposite in2="hardAlpha" operator="out"/>
<feColorMatrix type="matrix" values="0 0 0 0 0 0 0 0 0 0 0 0 0 0 0 0 0 0 0.25 0"/>
<feBlend mode="normal" in2="BackgroundImageFix" result="effect1_dropShadow_1_9"/>
<feBlend mode="normal" in="SourceGraphic" in2="effect1_dropShadow_1_9" result="shape"/>
</filter>
<filter id="filter1_d_1_9" x="-4" y="0" width="56" height="56" filterUnits="userSpaceOnUse" color-interpolation-filters="sRGB">
<feFlood flood-opacity="0" result="BackgroundImageFix"/>
<feColorMatrix in="SourceAlpha" type="matrix" values="0 0 0 0 0 0 0 0 0 0 0 0 0 0 0 0 0 0 127 0" result="hardAlpha"/>
<feOffset dy="4"/>
<feGaussianBlur stdDeviation="2"/>
<feComposite in2="hardAlpha" operator="out"/>
<feColorMatrix type="matrix" values="0 0 0 0 0 0 0 0 0 0 0 0 0 0 0 0 0 0 0.25 0"/>
<feBlend mode="normal" in2="BackgroundImageFix" result="effect1_dropShadow_1_9"/>
<feBlend mode="normal" in="SourceGraphic" in2="effect1_dropShadow_1_9" result="shape"/>
</filter>
</defs>
</svg>
